<mxfile host="65bd71144e">
    <diagram id="shvc9258QnjYM0HEiwOn" name="Page-1">
        <mxGraphModel dx="976" dy="719" grid="1" gridSize="10" guides="1" tooltips="1" connect="1" arrows="1" fold="1" page="1" pageScale="1" pageWidth="850" pageHeight="1100" math="0" shadow="0">
            <root>
                <mxCell id="0"/>
                <mxCell id="1" parent="0"/>
                <mxCell id="2" style="edgeStyle=none;html=1;entryX=0.5;entryY=0;entryDx=0;entryDy=0;fontFamily=Times New Roman;" parent="1" source="3" target="5" edge="1">
                    <mxGeometry relative="1" as="geometry"/>
                </mxCell>
                <mxCell id="3" value="" style="ellipse;whiteSpace=wrap;html=1;labelBackgroundColor=none;fillStyle=solid;fillColor=default;fontFamily=Times New Roman;" parent="1" vertex="1">
                    <mxGeometry x="390.5" y="60" width="70" height="70" as="geometry"/>
                </mxCell>
                <mxCell id="4" style="edgeStyle=none;html=1;entryX=0.5;entryY=0;entryDx=0;entryDy=0;fontFamily=Times New Roman;" parent="1" source="5" target="8" edge="1">
                    <mxGeometry relative="1" as="geometry"/>
                </mxCell>
                <mxCell id="5" value="Login" style="rounded=0;whiteSpace=wrap;html=1;labelBackgroundColor=none;fillStyle=solid;fillColor=none;fontFamily=Times New Roman;" parent="1" vertex="1">
                    <mxGeometry x="365" y="160" width="125" height="80" as="geometry"/>
                </mxCell>
                <mxCell id="6" value="Invalid" style="edgeStyle=none;html=1;entryX=0;entryY=0.5;entryDx=0;entryDy=0;fontFamily=Times New Roman;" parent="1" source="8" target="5" edge="1">
                    <mxGeometry relative="1" as="geometry">
                        <Array as="points">
                            <mxPoint x="230" y="340"/>
                            <mxPoint x="230" y="200"/>
                        </Array>
                    </mxGeometry>
                </mxCell>
                <mxCell id="7" value="Verified" style="edgeStyle=none;html=1;exitX=0.5;exitY=1;exitDx=0;exitDy=0;fontFamily=Times New Roman;" parent="1" source="8" edge="1">
                    <mxGeometry relative="1" as="geometry">
                        <mxPoint x="425.66666666666674" y="460" as="targetPoint"/>
                    </mxGeometry>
                </mxCell>
                <mxCell id="8" value="Authentication" style="rhombus;whiteSpace=wrap;html=1;labelBackgroundColor=none;fillStyle=solid;fillColor=none;fontFamily=Times New Roman;" parent="1" vertex="1">
                    <mxGeometry x="359" y="260" width="132" height="150" as="geometry"/>
                </mxCell>
                <mxCell id="16" value="" style="endArrow=none;html=1;strokeWidth=4;fontFamily=Times New Roman;" parent="1" edge="1">
                    <mxGeometry width="50" height="50" relative="1" as="geometry">
                        <mxPoint x="135" y="460" as="sourcePoint"/>
                        <mxPoint x="715" y="460" as="targetPoint"/>
                    </mxGeometry>
                </mxCell>
                <mxCell id="21" style="edgeStyle=none;html=1;fontFamily=Times New Roman;" parent="1" source="17" edge="1">
                    <mxGeometry relative="1" as="geometry">
                        <mxPoint x="240" y="650" as="targetPoint"/>
                    </mxGeometry>
                </mxCell>
                <mxCell id="17" value="Manage Profile &lt;br&gt;&amp;amp; Products" style="rounded=0;whiteSpace=wrap;html=1;fontFamily=Times New Roman;" parent="1" vertex="1">
                    <mxGeometry x="160" y="505" width="160" height="105" as="geometry"/>
                </mxCell>
                <mxCell id="18" value="Provide&lt;br&gt;Customer Support" style="rounded=0;whiteSpace=wrap;html=1;fontFamily=Times New Roman;" parent="1" vertex="1">
                    <mxGeometry x="342" y="505" width="142" height="90" as="geometry"/>
                </mxCell>
                <mxCell id="23" style="edgeStyle=none;html=1;fontFamily=Times New Roman;" parent="1" source="19" edge="1">
                    <mxGeometry relative="1" as="geometry">
                        <mxPoint x="600" y="650" as="targetPoint"/>
                    </mxGeometry>
                </mxCell>
                <mxCell id="19" value="Update &lt;br&gt;Informations" style="rounded=0;whiteSpace=wrap;html=1;fontFamily=Times New Roman;" parent="1" vertex="1">
                    <mxGeometry x="520" y="500" width="160" height="90" as="geometry"/>
                </mxCell>
                <mxCell id="20" value="" style="endArrow=none;html=1;strokeWidth=4;fontFamily=Times New Roman;" parent="1" edge="1">
                    <mxGeometry width="50" height="50" relative="1" as="geometry">
                        <mxPoint x="150" y="649.9999999999999" as="sourcePoint"/>
                        <mxPoint x="730" y="649.9999999999999" as="targetPoint"/>
                    </mxGeometry>
                </mxCell>
                <mxCell id="22" style="edgeStyle=none;html=1;fontFamily=Times New Roman;" parent="1" edge="1">
                    <mxGeometry relative="1" as="geometry">
                        <mxPoint x="412.40999999999997" y="650" as="targetPoint"/>
                        <mxPoint x="412.40999999999997" y="580" as="sourcePoint"/>
                    </mxGeometry>
                </mxCell>
                <mxCell id="24" style="edgeStyle=none;html=1;entryX=0.5;entryY=0;entryDx=0;entryDy=0;fontFamily=Times New Roman;" parent="1" target="19" edge="1">
                    <mxGeometry relative="1" as="geometry">
                        <mxPoint x="599.41" y="530" as="targetPoint"/>
                        <mxPoint x="599.41" y="460" as="sourcePoint"/>
                    </mxGeometry>
                </mxCell>
                <mxCell id="25" style="edgeStyle=none;html=1;entryX=0.5;entryY=0;entryDx=0;entryDy=0;fontFamily=Times New Roman;" parent="1" target="18" edge="1">
                    <mxGeometry relative="1" as="geometry">
                        <mxPoint x="412.40999999999985" y="530" as="targetPoint"/>
                        <mxPoint x="412.40999999999985" y="460" as="sourcePoint"/>
                    </mxGeometry>
                </mxCell>
                <mxCell id="26" style="edgeStyle=none;html=1;entryX=0.5;entryY=0;entryDx=0;entryDy=0;fontFamily=Times New Roman;" parent="1" target="17" edge="1">
                    <mxGeometry relative="1" as="geometry">
                        <mxPoint x="240" y="520" as="targetPoint"/>
                        <mxPoint x="239.40999999999985" y="459.9999999999999" as="sourcePoint"/>
                    </mxGeometry>
                </mxCell>
                <mxCell id="27" value="" style="ellipse;whiteSpace=wrap;html=1;labelBackgroundColor=none;fillStyle=solid;fillColor=none;fontFamily=Times New Roman;" parent="1" vertex="1">
                    <mxGeometry x="378" y="700" width="70" height="70" as="geometry"/>
                </mxCell>
                <mxCell id="28" value="" style="endArrow=classic;html=1;strokeWidth=1;entryX=0.5;entryY=0;entryDx=0;entryDy=0;fontFamily=Times New Roman;" parent="1" target="27" edge="1">
                    <mxGeometry width="50" height="50" relative="1" as="geometry">
                        <mxPoint x="413" y="650" as="sourcePoint"/>
                        <mxPoint x="478" y="480" as="targetPoint"/>
                    </mxGeometry>
                </mxCell>
                <mxCell id="29" value="" style="ellipse;whiteSpace=wrap;html=1;fontFamily=Times New Roman;" parent="1" vertex="1">
                    <mxGeometry x="383" y="705" width="60" height="60" as="geometry"/>
                </mxCell>
            </root>
        </mxGraphModel>
    </diagram>
</mxfile>